<svg xmlns="http://www.w3.org/2000/svg" data-name="Layer 1" viewBox="0 0 100 100" x="0px" y="0px" fill="#777" width="100pt" height="100pt" ><title>Artboard 14</title><path d="M23.3,62.36h8.54v2a8.51,8.51,0,0,0,8.5,8.5h7.16v7.62a8.34,8.34,0,0,0-8.07,6.27H30.9a8.34,8.34,0,0,0-8.06-6.27h-5a8.34,8.34,0,0,0-8.33,8.33v.88A8.34,8.34,0,0,0,17.84,98h5a8.34,8.34,0,0,0,8.07-6.27h8.53A8.34,8.34,0,0,0,47.51,98h5a8.34,8.34,0,0,0,8.07-6.27h8.53A8.34,8.34,0,0,0,77.17,98h5a8.34,8.34,0,0,0,8.33-8.33v-.88a8.34,8.34,0,0,0-8.33-8.33h-5a8.34,8.34,0,0,0-8.07,6.27H60.57a8.34,8.34,0,0,0-8.06-6.27h0V72.83h6.87a8.51,8.51,0,0,0,8.5-8.5v-2H76.7a18.56,18.56,0,0,0,6.54-35.94q0-.7,0-1.39a23,23,0,0,0-39.4-16.2A19,19,0,0,0,16.72,26c0,.14,0,.28,0,.42A18.56,18.56,0,0,0,23.3,62.36Zm2.87,27.31A3.34,3.34,0,0,1,22.84,93h-5a3.34,3.34,0,0,1-3.33-3.33v-.88a3.34,3.34,0,0,1,3.33-3.33h5a3.34,3.34,0,0,1,3.33,3.33Zm47.67-.88a3.34,3.34,0,0,1,3.33-3.33h5a3.34,3.34,0,0,1,3.33,3.33v.88A3.34,3.34,0,0,1,82.17,93h-5a3.34,3.34,0,0,1-3.33-3.33ZM52.51,85.45a3.34,3.34,0,0,1,3.33,3.33v.88A3.34,3.34,0,0,1,52.51,93h-5a3.34,3.34,0,0,1-3.33-3.33v-.88a3.34,3.34,0,0,1,3.33-3.33ZM62.88,64.33a3.5,3.5,0,0,1-3.5,3.5h-19a3.5,3.5,0,0,1-3.5-3.5V54.72a3.51,3.51,0,0,1,3.5-3.5h19a3.51,3.51,0,0,1,3.5,3.5ZM20,30.65a2.5,2.5,0,0,0,1.87-2.76,14,14,0,0,1,21.23-13.8,2.5,2.5,0,0,0,3.24-.53A18,18,0,0,1,78.28,25a18.23,18.23,0,0,1-.21,2.79,2.5,2.5,0,0,0,1.88,2.81A13.56,13.56,0,0,1,76.7,57.36H67.88V54.72a8.51,8.51,0,0,0-8.5-8.5h-19a8.51,8.51,0,0,0-8.5,8.5v2.64H23.3A13.56,13.56,0,0,1,20,30.65Z"/><circle cx="49.86" cy="35.02" r="2.5"/><circle cx="39.73" cy="35.02" r="2.5"/><circle cx="59.98" cy="35.02" r="2.5"/></svg>