<svg xmlns="http://www.w3.org/2000/svg" xmlns:xlink="http://www.w3.org/1999/xlink" version="1.1" x="0px" y="0px" fill="#777" width="100pt" height="100pt" viewBox="0 0 100 135" enable-background="new 0 0 100 100" xml:space="preserve"><path d="M97.2,43.7c0.9,0.7,1.4,1.8,1.4,2.9V52v3.8H73.4v-7.2V43c0-2-0.8-3.9-2.2-5.4c1-0.5,1.6-0.9,2-1c0.1-0.1,0.2-0.2,0.2-0.3  v-2.8c-0.7-1.2-1.1-2.6-1.3-3.8c-0.4,0-1-0.6-1.6-2.8c-0.8-2.7,0-3.3,0.7-3.3c0,0,0.1,0,0.1,0c-0.5-1.5-0.6-3-0.2-4.4  c0.4-1.6,1.3-2.9,2.3-4c0.6-0.7,1.3-1.3,2.1-1.7c0.6-0.4,1.3-0.8,2-1v0c0.6-0.2,1.2-0.3,1.8-0.4c0.3,0,0.5,0,0.8,0  c1.6,0,2.9,0.5,3.8,1c1.6,0.9,2.3,2.1,2.3,2.1s4.1,0.3,2.3,8.9c0.6,0.2,0.9,1,0.3,3.2c-0.6,2.2-1.2,2.8-1.6,2.8  c-0.1,0-0.2,0-0.3-0.1c-0.2,1-0.5,2-0.9,3v3.2c0,0.1,0.1,0.3,0.2,0.3C87.2,37.1,92.4,39.8,97.2,43.7z M26.6,48.6V43  c0-2,0.8-3.9,2.2-5.4c-1-0.5-1.6-0.9-2-1c-0.1-0.1-0.2-0.2-0.2-0.3v-3.2c0.5-1,0.8-2.1,0.9-3c0.1,0.1,0.2,0.1,0.3,0.1  c0.4,0,1-0.6,1.6-2.8c0.6-2.3,0.3-3-0.3-3.2c1.8-8.6-2.3-8.9-2.3-8.9s-0.6-1.2-2.3-2.1c-0.9-0.6-2.2-1-3.8-1c-0.3,0-0.5,0-0.8,0  c-0.7,0-1.3,0.2-1.8,0.4v0c-0.7,0.3-1.4,0.6-2,1c-0.8,0.5-1.5,1.1-2.1,1.7c-1,1-1.9,2.3-2.3,4c-0.4,1.4-0.4,2.9,0.2,4.4  c0,0-0.1,0-0.1,0c-0.7,0-1.4,0.5-0.7,3.3c0.6,2.1,1.2,2.7,1.6,2.8c0.2,1.2,0.6,2.6,1.3,3.8v2.8c0,0.1-0.1,0.3-0.2,0.3  c-1,0.5-6.3,3.1-11.1,7.1c-0.9,0.7-1.4,1.8-1.4,2.9V52v3.8h25.2V48.6z M68.6,75.8l-1.9,1.9L62.9,74c-1,1.4-2.3,2.7-3.7,3.7l3.7,3.7  l-1.9,1.9c-0.2,0.2-0.1,0.6,0.2,0.6l8.3,0.8c0.3,0,0.5-0.2,0.5-0.5l-0.8-8.3C69.2,75.8,68.8,75.6,68.6,75.8z M34.1,64.8  c0-0.9,0.1-1.7,0.2-2.6H29v-2.7c0-0.3-0.3-0.5-0.6-0.3L22,64.5c-0.2,0.2-0.2,0.5,0,0.7l6.4,5.3c0.2,0.2,0.6,0,0.6-0.3v-2.7h5.3  C34.2,66.5,34.1,65.7,34.1,64.8z M71.5,59.2c-0.2-0.2-0.6,0-0.6,0.3v2.7h-5.3c0.1,0.8,0.2,1.7,0.2,2.6c0,0.9-0.1,1.7-0.2,2.6H71v2.7  c0,0.3,0.3,0.5,0.6,0.3l6.4-5.3c0.2-0.2,0.2-0.5,0-0.7L71.5,59.2z M37.1,74l-3.7,3.7l-1.9-1.9c-0.2-0.2-0.6-0.1-0.6,0.2L30,84.3  c0,0.3,0.2,0.5,0.5,0.5l8.3-0.8c0.3,0,0.4-0.4,0.2-0.6L37,81.4l3.7-3.7C39.3,76.7,38.1,75.5,37.1,74z M55.3,85.8h-2.7v-5.3  c-0.8,0.1-1.7,0.2-2.6,0.2c-0.9,0-1.7-0.1-2.6-0.2v5.3h-2.7c-0.3,0-0.5,0.3-0.3,0.6l5.3,6.4c0.2,0.2,0.5,0.2,0.7,0l5.3-6.4  C55.8,86.1,55.6,85.8,55.3,85.8z M50,48.7c5.5,0,10.4,2.8,13.3,7.1h6.4v-7.2V43c0-1.2-0.5-2.3-1.4-3c-5-4.1-10.5-6.9-11.6-7.4  c-0.1-0.1-0.2-0.2-0.2-0.3v-3.4c0.5-1,0.8-2.1,1-3.1c0.1,0.1,0.2,0.1,0.3,0.1c0.4,0,1-0.6,1.7-2.9c0.7-2.4,0.3-3.2-0.3-3.4  c1.9-9-2.4-9.3-2.4-9.3s-0.6-1.2-2.4-2.2c-1-0.6-2.3-1.1-4-1.1c-0.3,0-0.5,0-0.8,0c-0.7,0-1.3,0.2-1.9,0.4v0  c-0.8,0.3-1.5,0.6-2.1,1.1c-0.8,0.5-1.5,1.1-2.2,1.8c-1,1.1-2,2.4-2.4,4.1c-0.4,1.4-0.4,3,0.2,4.6c0,0-0.1,0-0.1,0  c-0.7,0-1.5,0.6-0.7,3.4c0.6,2.2,1.2,2.8,1.7,2.9c0.2,1.3,0.6,2.7,1.3,4v2.9c0,0.1-0.1,0.3-0.2,0.3c-1.1,0.5-6.5,3.3-11.5,7.4  c-0.9,0.7-1.4,1.9-1.4,3v5.6v7.2h6.4C39.6,51.5,44.5,48.7,50,48.7z M62.7,64.8c0,7-5.7,12.7-12.7,12.7c-7,0-12.7-5.7-12.7-12.7  c0-7,5.7-12.7,12.7-12.7C57,52.1,62.7,57.8,62.7,64.8z M56.3,62.1l-2.4-2.4l-5.5,5.5l-2.3-2.3l-2.4,2.4l2.3,2.3l2.4,2.4l2.4-2.4  L56.3,62.1z"/></svg>