<svg xmlns="http://www.w3.org/2000/svg" data-name="Layer 1" fill="#777" width="100pt" height="100pt" viewBox="0 0 100 100" x="0px" y="0px"><title>Artboard 30</title><path d="M96.5,76.33H91.27V55.11s0,0,0,0A31.6,31.6,0,1,0,39.19,20.13H16.39a7.67,7.67,0,0,0-7.67,7.67V76.33H3.5A2.5,2.5,0,0,0,1,78.83v8.91a9.5,9.5,0,0,0,9.49,9.49h79A9.5,9.5,0,0,0,99,87.74V78.83A2.5,2.5,0,0,0,96.5,76.33Zm-15.77,0V63a31.53,31.53,0,0,0,5.55-3.32V76.33Zm-40.46,0h-16V35.25H35.81a31.47,31.47,0,0,0,3.89,14.33L37.22,58.1a5.2,5.2,0,0,0,6.45,6.45l8.53-2.48a31.44,31.44,0,0,0,23.53,2.78V76.33h-16a2.5,2.5,0,0,0-2.5,2.5v2.51H42.77V78.83A2.5,2.5,0,0,0,40.27,76.33Zm8.32-60.77a26.6,26.6,0,1,1,5.2,41.67,2.5,2.5,0,0,0-2-.25l-9.55,2.77A.2.2,0,0,1,42,59.5L44.79,50a2.5,2.5,0,0,0-.25-2A26.56,26.56,0,0,1,48.59,15.56ZM13.73,27.79a2.67,2.67,0,0,1,2.67-2.67H37.17a31.59,31.59,0,0,0-1.11,5.12H21.77a2.5,2.5,0,0,0-2.5,2.5V76.33H13.73ZM94,87.74a4.5,4.5,0,0,1-4.49,4.49h-79A4.5,4.5,0,0,1,6,87.74V81.33H37.77v.31a4.7,4.7,0,0,0,4.7,4.69H57.54a4.7,4.7,0,0,0,4.7-4.69v-.31H94Z"/><path d="M67.4,48.09A19.07,19.07,0,0,0,85.6,35.2a2.5,2.5,0,0,0,0-1.66,19.29,19.29,0,0,0-36.39,0,2.5,2.5,0,0,0,0,1.66A19.07,19.07,0,0,0,67.4,48.09Zm0-22.44a14,14,0,0,1,13.16,8.72,14.29,14.29,0,0,1-26.33,0A14,14,0,0,1,67.4,25.65Z"/><path d="M67.4,37.43h0a3.06,3.06,0,1,0-3.07-3.06A3.05,3.05,0,0,0,67.41,37.43Z"/></svg>